HIERARCHY
ROOT ui
{
	 OFFSET 0 0 0
	 CHANNELS 3 XPosition YPosition Z Position
	 EndSite
	 {
	 OFFSET 0 -1 0
	 }
}
ROOT li
{
	 OFFSET 0 0 0
	 CHANNELS 3 XPosition YPosition Z Position
	 EndSite
	 {
	 OFFSET 0 -1 0
	 }
}
ROOT ul
{
	 OFFSET 0 0 0
	 CHANNELS 3 XPosition YPosition Z Position
	 EndSite
	 {
	 OFFSET 0 -1 0
	 }
}
ROOT ll
{
	 OFFSET 0 0 0
	 CHANNELS 3 XPosition YPosition Z Position
	 EndSite
	 {
	 OFFSET 0 -1 0
	 }
}
ROOT tt
{
	 OFFSET 0 0 0
	 CHANNELS 3 XPosition YPosition Z Position
	 EndSite
	 {
	 OFFSET 0 -1 0
	 }
}
ROOT tb
{
	 OFFSET 0 0 0
	 CHANNELS 3 XPosition YPosition Z Position
	 EndSite
	 {
	 OFFSET 0 -1 0
	 }
}
ROOT td
{
	 OFFSET 0 0 0
	 CHANNELS 3 XPosition YPosition Z Position
	 EndSite
	 {
	 OFFSET 0 -1 0
	 }
}
ROOT v
{
	 OFFSET 0 0 0
	 CHANNELS 3 XPosition YPosition Z Position
	 EndSite
	 {
	 OFFSET 0 -1 0
	 }
}
ROOT bn
{
	 OFFSET 0 0 0
	 CHANNELS 3 XPosition YPosition Z Position
	 EndSite
	 {
	 OFFSET 0 -1 0
	 }
}
MOTION
Frames: 10
Frame Time: 0.002
3.782869875431061E-4	0.004729659080505371	0		0.5814998168945312	-2.6351298828125	0		-0.8251797485351563	0.3119412536621094	0		-0.38593048095703125	-3.063905517578125	0		1.8133856201171874	-1.2961563720703124	0		3.4296748046875	-0.8139464111328125	0		4.73311279296875	-0.3871275634765625	0		5.89328759765625	0.3618396911621094	0		-0.14200271606445314	5.9454765625	0		
0.002086442947387695	-0.0029941959381103514	0		0.6342264404296875	-2.640611328125	0		-0.8294095458984375	0.3083118591308594	0		-0.41907974243164064	-3.060111083984375	0		1.7914700927734375	-1.277542724609375	0		3.452595703125	-0.8070081787109376	0		4.73293603515625	-0.3868591003417969	0		5.8889990234375	0.35415914916992186	0		-0.023966405868530275	5.95603955078125	0		
-0.003033152103424072	0.0024061849117279054	0		0.6080580444335938	-2.63690576171875	0		-0.8346594848632812	0.30472000122070314	0		-0.362245849609375	-3.056622802734375	0		1.8233212890625	-1.2737032470703125	0		3.404356201171875	-0.8090001831054687	0		4.71865185546875	-0.3923633117675781	0		5.88467529296875	0.34549813842773436	0		-0.009935955047607421	5.96815869140625	0		
-0.0072906241416931155	-1.8706400692462922E-4	0		0.6078206176757812	-2.63656396484375	0		-0.834870361328125	0.3050748291015625	0		-0.4253028564453125	-3.043342529296875	0		1.8172003173828124	-1.2662845458984375	0		3.419133544921875	-0.8089052124023437	0		4.7291826171875	-0.40921926879882814	0		5.88858251953125	0.35373239135742185	0		-0.14243594360351564	5.946458984375	0		
0.0014468599557876586	-0.001954576015472412	0		0.6116193237304688	-2.6322646484375	0		-0.8251149291992188	0.30430120849609377	0		-0.37363198852539065	-3.0477412109375	0		1.80722216796875	-1.247792724609375	0		3.42586279296875	-0.8106796264648437	0		4.73303466796875	-0.402964111328125	0		5.89347216796875	0.361960205078125	0		-0.17471945190429689	5.9392998046875	0		
0.004257373809814453	0.0023816258907318117	0		0.61643994140625	-2.62496630859375	0		-0.8162418823242188	0.31255889892578126	0		-0.4106050109863281	-3.02581005859375	0		1.8102532958984374	-1.227481689453125	0		3.4188857421875	-0.791241455078125	0		4.73560302734375	-0.4146875305175781	0		5.893228515625	0.36226483154296873	0		-0.14277584838867188	5.947208984375	0		
-0.0039894568920135496	0.003894563913345337	0		0.6311792602539062	-2.621803955078125	0		-0.83054248046875	0.3101739501953125	0		-0.376962890625	-3.02891259765625	0		1.789225830078125	-1.2098060302734375	0		3.413315185546875	-0.8108238525390625	0		4.72915673828125	-0.4262764892578125	0		5.88373583984375	0.34670272827148435	0		-0.14294578552246093	5.94760546875	0		
6.611120104789734E-4	-7.734429836273193E-4	0		0.6028751220703125	-2.61999462890625	0		-0.8358704833984375	0.30666909790039065	0		-0.40818505859375	-3.021041015625	0		1.8230440673828125	-1.20193798828125	0		3.41302587890625	-0.8104799194335938	0		4.71787548828125	-0.4257930908203125	0		5.88758544921875	0.3549419250488281	0		-0.008801688194274902	5.9680234375	0		
-0.003667920112609863	-0.003300189971923828	0		0.603566650390625	-2.6176083984375	0		-0.836149169921875	0.30709954833984376	0		-0.4163520812988281	-3.008501708984375	0		1.7711861572265626	-1.1707923583984374	0		3.41860498046875	-0.8182238159179688	0		4.7193740234375	-0.43950341796875	0		5.883189453125	0.34729632568359375	0		-0.1422925109863281	5.94741552734375	0		
-0.00484134578704834	0.005132332801818847	0		0.5803218994140625	-2.609862060546875	0		-0.82645068359375	0.30638818359375	0		-0.3966996765136719	-3.00737158203125	0		1.7841038818359376	-1.15460888671875	0		3.40372705078125	-0.7886624755859375	0		4.71393798828125	-0.4481159057617187	0		5.89287353515625	0.3454336853027344	0		-0.009123541831970216	5.96885595703125	0		
